<?xml version="1.0" encoding="UTF-8" standalone="no"?>
<!-- Created with Inkscape (http://www.inkscape.org/) -->

<svg
   version="1.1"
   id="svg1"
   width="698.72028"
   height="144.77145"
   viewBox="0 0 698.72028 144.77145"
   sodipodi:docname="Lux_Rosalia album_logo.svg"
   xml:space="preserve"
   inkscape:version="1.4.2 (f4327f4, 2025-05-13)"
   xmlns:inkscape="http://www.inkscape.org/namespaces/inkscape"
   xmlns:sodipodi="http://sodipodi.sourceforge.net/DTD/sodipodi-0.dtd"
   xmlns="http://www.w3.org/2000/svg"
   xmlns:svg="http://www.w3.org/2000/svg"><defs
     id="defs1" /><sodipodi:namedview
     id="namedview1"
     pagecolor="#ffffff"
     bordercolor="#999999"
     borderopacity="1"
     inkscape:showpageshadow="2"
     inkscape:pageopacity="0"
     inkscape:pagecheckerboard="0"
     inkscape:deskcolor="#d1d1d1"
     inkscape:zoom="0.67"
     inkscape:cx="234.32836"
     inkscape:cy="409.70149"
     inkscape:window-width="1920"
     inkscape:window-height="991"
     inkscape:window-x="-9"
     inkscape:window-y="-9"
     inkscape:window-maximized="1"
     inkscape:current-layer="g1" /><g
     inkscape:groupmode="layer"
     inkscape:label="Image"
     id="g1"
     transform="translate(-231.06747,-38.995007)"><path
       style="fill:#000000"
       d="m 556.62914,182.3514 c -16.99796,-3.37558 -28.57577,-13.4618 -33.74068,-29.39381 -1.99172,-6.1438 -2.15893,-9.34512 -2.74427,-52.54242 -0.6719,-49.584605 -0.68183,-49.671945 -6.10109,-53.679245 -1.3828,-1.02251 -4.88344,-2.13972 -7.77921,-2.48268 -12.56348,-1.48796 -4.29741,-2.33807 22.73437,-2.33807 27.00329,0 36.12268,0.88484 23.96251,2.32503 -2.80309,0.33198 -6.51559,1.42987 -8.25,2.43974 -6.00074,3.49398 -6.09567,4.14016 -6.48793,44.16278 -0.5705,58.208115 1.6188,70.324535 14.28075,79.035185 6.61503,4.55073 12.94493,6.21275 23.55369,6.1844 22.37253,-0.0598 37.3534,-10.4503 41.68514,-28.91222 1.60208,-6.82804 1.81425,-12.65921 1.80964,-49.734915 -0.005,-39.95417 -0.10238,-42.19484 -2,-46 -2.23043,-4.47252 -5.70447,-6.54388 -12.20398,-7.27647 -2.3852,-0.26884 -4.57794,-0.87912 -4.87278,-1.35617 -0.29694,-0.48046 9.99911,-0.86736 23.08198,-0.86736 22.1129,0 28.30653,0.81589 18.31834,2.41306 -2.32429,0.37167 -5.59677,1.53022 -7.27216,2.57456 -6.14366,3.82957 -5.9726,2.5474 -6.67236,50.01238 -0.69474,47.125045 -1.28511,52.957915 -6.37726,63.006775 -5.71762,11.28318 -17.91223,19.82979 -32.19231,22.56202 -9.1975,1.75978 -23.49494,1.70187 -32.73239,-0.13257 z m -325.28586,-3.13332 c -0.73744,-1.92172 -0.34185,-2.15444 5.56718,-3.27507 6.47718,-1.22837 8.68243,-2.38946 10.86507,-5.72059 1.57712,-2.40699 1.71035,-7.36196 1.62198,-60.32418 -0.0779,-46.690005 -0.35811,-58.247215 -1.46826,-60.559865 -1.34992,-2.81215 -6.51621,-5.5177 -13.19301,-6.90908 -1.59389,-0.33215 -2.64525,-1.11558 -2.41694,-1.801 0.66899,-2.00828 71.73798,-2.2508 71.73798,-0.2448 0,1.52594 -0.38069,1.65899 -10.1162,3.53544 -6.9943,1.34811 -9.53954,3.90801 -10.87214,10.93478 -1.68518,8.88591 -1.33817,110.344255 0.39157,114.484085 1.90688,4.56382 6.55224,6.05629 18.29765,5.87869 25.82889,-0.39056 39.70903,-9.59191 50.85276,-33.71104 2.57893,-5.58176 4.01253,-7.59028 5.41762,-7.59028 2.99007,0 3.02282,0.8138 0.54466,13.53159 -1.28269,6.58262 -3.10485,16.24341 -4.04927,21.46841 -0.94441,5.225 -2.14034,10.03175 -2.65762,10.68167 -1.50093,1.88581 -119.7967,1.51404 -120.52303,-0.37876 z m 551.20963,0.69003 c -0.34231,-0.55389 -0.0314,-1.19047 0.69099,-1.41463 12.71729,-3.94637 17.69504,-6.79124 24.98523,-14.27952 6.37444,-6.54764 41.80592,-50.52739 41.81825,-51.90739 0.0116,-1.29599 -24.4204,-37.133755 -32.99155,-48.393295 -8.66574,-11.38379 -15.51601,-16.33698 -26.37599,-19.07155 -2.54241,-0.64019 -4.62256,-1.56055 -4.62256,-2.04526 0,-0.48985 14.08013,-0.88129 31.7,-0.88129 17.435,0 31.2725,0.37414 30.75,0.83143 -0.5225,0.45728 -2.88829,1.38307 -5.25731,2.05731 -11.89197,3.38454 -11.27913,8.34119 3.88292,31.40489 14.43485,21.95752 13.9322,21.39926 16.64027,18.48108 5.32257,-5.73555 26.48996,-33.71247 28.32768,-37.44068 1.8901,-3.83447 1.93652,-4.44593 0.58348,-7.68423 -1.34776,-3.22564 -1.9756,-3.61772 -7.54853,-4.71413 -3.34318,-0.65773 -6.07851,-1.58733 -6.07851,-2.06577 0,-0.47844 10.82656,-0.8699 24.05902,-0.8699 15.7847,0 23.84646,0.34392 23.44098,1 -0.33992,0.55 -1.0246,1 -1.5215,1 -3.53913,0 -12.76644,4.86745 -17.59747,9.28273 -7.9603,7.27527 -40.38103,47.973235 -40.38103,50.690595 0,1.48467 24.83571,39.21473 34.16516,51.90323 11.7115,15.9282 16.47617,20.02752 25.17487,21.65941 2.10808,0.39548 3.58217,1.19743 3.37015,1.83348 -0.26835,0.80505 -8.48633,1.13055 -28.54351,1.13055 -27.86123,0 -33.56466,-0.71178 -24.12333,-3.01055 8.20919,-1.99877 10.03227,-8.19565 4.96239,-16.86772 -5.1687,-8.84109 -26.45591,-40.01284 -27.54722,-40.33855 -0.57282,-0.17096 -4.19179,3.63288 -8.04216,8.45299 -13.54389,16.95503 -24.17716,30.82208 -26.28199,34.27488 -4.38788,7.1979 -1.6367,13.24536 6.62687,14.56676 2.59635,0.41517 4.23877,1.2095 4.23877,2.05 0,1.70649 -47.45458,2.06372 -48.50437,0.36513 z"
       id="path2" /></g></svg>
